<?xml version="1.0" encoding="UTF-8"?>
<svg id="Layer_1" data-name="Layer 1" xmlns="http://www.w3.org/2000/svg" xmlns:xlink="http://www.w3.org/1999/xlink" viewBox="0 0 466.8 501.91">
  <defs>
    <style>
      .cls-1 {
        fill: none;
      }

      .cls-2 {
        fill: #231f20;
      }

      .cls-3 {
        fill: #8c1b1c;
      }
    </style>
  </defs>
  <g>
    <rect class="cls-1" y="418.24" width="466.8" height="77.34"/>
    <path class="cls-2" d="M93.84,473.68c.22,0,.37.14.46.42.08.28.04.47-.12.58l-9.13,4.32c-.33.11-.55.17-.66.17-.72,0-1.33-.61-1.83-1.83s-.78-2.91-.83-5.06c-2.05,2.16-4.19,3.9-6.43,5.23-2.24,1.33-4.75,1.99-7.51,1.99-2.32,0-4.47-.66-6.43-1.99-1.96-1.33-3.54-3.2-4.73-5.6-1.19-2.41-1.78-5.16-1.78-8.26,0-3.93.97-7.28,2.91-10.04,1.94-2.77,4.37-4.84,7.3-6.22,2.93-1.38,5.84-2.08,8.72-2.08s5.59.72,7.97,2.16v-18.59c0-1.99-.21-3.43-.62-4.32-.42-.88-1.12-1.33-2.12-1.33-.72,0-1.99.39-3.82,1.16h-.17c-.22,0-.37-.12-.46-.37s-.04-.43.12-.54l10.54-5.15c.11-.05.25-.08.41-.08.11,0,.26.07.46.21.19.14.29.29.29.46v50.38c0,1.99.23,3.43.71,4.32.47.89,1.23,1.33,2.28,1.33,1.6,0,3.04-.39,4.32-1.16l.17-.08ZM76.57,475.05c1.71-.97,3.43-2.34,5.15-4.11v-18.26c-1.33-1.83-2.79-3.24-4.4-4.23-1.61-1-3.54-1.49-5.81-1.49-3.49,0-6.24,1.23-8.26,3.69-2.02,2.46-3.03,5.96-3.03,10.5,0,3.04.47,5.73,1.41,8.05.94,2.32,2.23,4.12,3.86,5.39,1.63,1.27,3.47,1.91,5.52,1.91s3.85-.48,5.56-1.45Z"/>
    <path class="cls-2" d="M128.78,473.93c.22,0,.36.12.42.37.05.25-.03.43-.25.54l-8.55,4.07c-.22.11-.44.17-.66.17-.72,0-1.36-.49-1.91-1.45-.55-.97-.91-2.28-1.08-3.94l-4.32,2.82c-1.38.89-2.6,1.52-3.65,1.91-1.05.39-2.16.58-3.32.58-2.05,0-3.64-.54-4.77-1.62-1.13-1.08-1.7-2.45-1.7-4.11s.66-3.1,1.99-4.32c1.33-1.22,3.51-2.38,6.56-3.49l9.13-3.4v-5.64c0-6.2-1.74-9.3-5.23-9.3-1.88,0-3.31.62-4.27,1.87-.97,1.25-1.62,2.67-1.95,4.27-.17,1-.47,1.81-.91,2.45-.44.64-1.19.95-2.24.95-.89,0-1.56-.25-2.03-.75-.47-.5-.71-1.08-.71-1.74,0-1.33.86-2.66,2.57-3.98,1.71-1.33,3.76-2.43,6.14-3.32,2.38-.88,4.51-1.33,6.39-1.33,2.27,0,3.98.72,5.15,2.16,1.16,1.44,1.74,3.51,1.74,6.22v15.52c0,1.94.25,3.35.75,4.23.5.89,1.33,1.33,2.49,1.33,1.05,0,2.41-.36,4.07-1.08h.17ZM116.66,472.52v-9.3l-7.72,2.99c-1.55.61-2.67,1.32-3.36,2.12-.69.8-1.04,1.76-1.04,2.86,0,1.33.43,2.45,1.29,3.36.86.91,1.98,1.37,3.36,1.37,1.11,0,2.43-.44,3.98-1.33l3.49-2.07Z"/>
    <path class="cls-2" d="M164.05,446.88c0,.33-.06.5-.17.5-1.38,0-2.57.46-3.57,1.37s-1.94,2.48-2.82,4.69l-10.38,24.9c-.11.28-.42.42-.91.42s-.8-.14-.91-.42l-11.62-25.07c-1.11-2.38-2.03-3.96-2.78-4.73-.75-.77-1.67-1.16-2.78-1.16-.17,0-.25-.17-.25-.5s.08-.5.25-.5c1.11,0,1.96.03,2.57.08l3.15.08,5.4-.08c.83-.05,1.94-.08,3.32-.08.17,0,.25.17.25.5s-.08.5-.25.5c-3.32,0-4.98.66-4.98,1.99,0,.39.11.8.33,1.25l10.13,21.41,7.8-19.01c.39-1.05.58-1.85.58-2.41,0-1.11-.53-1.92-1.58-2.45-1.05-.52-2.71-.79-4.98-.79-.11,0-.17-.17-.17-.5s.05-.5.17-.5c1.49,0,2.63.03,3.4.08l4.98.08,2.99-.08c.55-.05,1.44-.08,2.66-.08.11,0,.17.17.17.5Z"/>
    <path class="cls-2" d="M193.93,473.77c.17,0,.32.1.46.29.14.19.15.37.04.54-3.65,3.21-7.69,4.81-12.12,4.81-3.21,0-5.95-.75-8.22-2.24-2.27-1.49-4-3.46-5.19-5.89-1.19-2.43-1.78-5.04-1.78-7.8,0-3.26.77-6.27,2.32-9,1.55-2.74,3.67-4.9,6.35-6.47,2.68-1.58,5.63-2.37,8.84-2.37s5.48.83,7.14,2.49c1.66,1.66,2.49,3.98,2.49,6.97,0,.78-.07,1.33-.21,1.66-.14.33-.37.5-.71.5l-20.58.08c-.11,1.22-.17,2.21-.17,2.99,0,4.81,1.13,8.71,3.4,11.7,2.27,2.99,5.45,4.48,9.54,4.48,1.66,0,3.08-.22,4.27-.66,1.19-.44,2.53-1.13,4.03-2.08h.08ZM176,449.66c-1.55,1.58-2.57,3.78-3.07,6.6l15.77-.33c0-2.82-.61-4.97-1.83-6.43-1.22-1.46-2.88-2.2-4.98-2.2-2.38,0-4.34.79-5.89,2.37Z"/>
    <path class="cls-3" d="M256.14,477.96c-.03.3-.12.46-.29.46h-8.96c-2.49,0-6.28-1.96-11.37-5.89-4.48,4.59-10.07,6.89-16.77,6.89-3.43,0-6.29-.58-8.59-1.74-2.3-1.16-4.01-2.68-5.15-4.56-1.13-1.88-1.7-3.9-1.7-6.06,0-3.15.98-5.91,2.95-8.26,1.96-2.35,4.8-4.88,8.51-7.59-1-1.49-1.8-2.88-2.41-4.15-1.61-3.54-2.41-6.56-2.41-9.05s.58-4.58,1.74-6.6c1.16-2.02,2.79-3.62,4.9-4.81,2.1-1.19,4.48-1.78,7.14-1.78s4.94.64,6.85,1.91c1.91,1.27,2.86,3.38,2.86,6.31,0,2.16-.54,4.1-1.62,5.81-1.08,1.72-2.41,3.22-3.98,4.52-1.58,1.3-3.69,2.84-6.35,4.61-.39.22-.97.61-1.74,1.16,3.82,6.14,9.71,12.31,17.68,18.51,1.94-3.37,2.91-7.11,2.91-11.21,0-1.99-.4-3.49-1.2-4.48-.8-1-2.37-1.49-4.69-1.49-.17,0-.26-.17-.29-.5-.03-.33.07-.5.29-.5l17.35-.08c.22,0,.33.17.33.5s-.11.5-.33.5c-1.88,0-3.29.18-4.23.54-.94.36-1.61.84-1.99,1.45-.39.61-.78,1.58-1.16,2.9-1.61,5.48-3.51,9.91-5.73,13.28,3.26,2.38,6.42,4.34,9.46,5.89,3.04,1.55,5.62,2.55,7.72,2.99.22.06.32.24.29.54ZM234.44,471.69l-1.49-1.25c-3.32-2.6-6.52-5.49-9.59-8.67-3.07-3.18-5.71-6.35-7.93-9.5-2.16,1.71-3.83,3.53-5.02,5.44-1.19,1.91-1.78,4.05-1.78,6.43s.59,4.47,1.78,6.43c1.19,1.96,2.85,3.51,4.98,4.65,2.13,1.13,4.49,1.7,7.1,1.7,4.65,0,8.63-1.74,11.95-5.23ZM219.08,448.12c3.04-2.27,5.38-4.47,7.01-6.6,1.63-2.13,2.45-4.52,2.45-7.18,0-2.43-.65-4.34-1.95-5.73-1.3-1.38-3.06-2.08-5.27-2.08-4.37,0-6.56,2.63-6.56,7.88,0,4.32,1.44,8.88,4.32,13.7Z"/>
    <path class="cls-2" d="M317.77,477.92c0,.33-.11.5-.33.5-1.27,0-2.3-.03-3.07-.08l-4.48-.08-4.48.08c-.78.06-1.8.08-3.07.08-.17,0-.25-.17-.25-.5s.08-.5.25-.5c1.49,0,2.6-.15,3.32-.46.72-.3,1.22-.86,1.49-1.66.28-.8.42-2,.42-3.61v-13.2c0-3.26-.58-5.69-1.74-7.26s-2.96-2.37-5.39-2.37c-1.66,0-3.33.46-5.02,1.37-1.69.91-3.25,2.2-4.69,3.86.05.28.08.72.08,1.33v16.27c0,1.66.14,2.88.42,3.65.28.78.77,1.32,1.49,1.62.72.3,1.83.46,3.32.46.17,0,.25.17.25.5s-.08.5-.25.5c-1.27,0-2.3-.03-3.07-.08l-4.48-.08-4.57.08c-.72.06-1.72.08-2.99.08-.17,0-.25-.17-.25-.5s.08-.5.25-.5c1.49,0,2.6-.15,3.32-.46.72-.3,1.2-.84,1.45-1.62.25-.77.37-1.99.37-3.65v-13.2c0-3.26-.58-5.69-1.74-7.26s-2.93-2.37-5.31-2.37c-1.66,0-3.32.44-4.98,1.33-1.66.89-3.18,2.13-4.56,3.73v17.76c0,1.66.12,2.88.37,3.65.25.78.73,1.32,1.45,1.62.72.3,1.83.46,3.32.46.17,0,.25.17.25.5s-.08.5-.25.5c-1.27,0-2.27-.03-2.99-.08l-4.48-.08-4.57.08c-.72.06-1.72.08-2.99.08-.17,0-.25-.17-.25-.5s.08-.5.25-.5c1.49,0,2.6-.15,3.32-.46.72-.3,1.2-.84,1.45-1.62.25-.77.37-1.99.37-3.65v-16.43c0-1.88-.22-3.24-.66-4.07-.44-.83-1.19-1.25-2.24-1.25-.89,0-2.38.42-4.48,1.25h-.17c-.22,0-.37-.12-.46-.37s-.01-.43.21-.54l9.63-4.57.5-.08c.5,0,1.02.64,1.58,1.91.55,1.27.83,2.91.83,4.9v.08c1.99-2.43,3.98-4.2,5.98-5.31,1.99-1.11,4.07-1.66,6.23-1.66,2.49,0,4.51.61,6.06,1.83,1.55,1.22,2.52,3.04,2.91,5.48,2.05-2.49,4.09-4.33,6.14-5.52,2.05-1.19,4.18-1.78,6.39-1.78,2.93,0,5.19.84,6.76,2.53,1.58,1.69,2.37,4.19,2.37,7.51v16.1c0,1.66.12,2.88.37,3.65.25.78.73,1.32,1.45,1.62.72.3,1.83.46,3.32.46.22,0,.33.17.33.5Z"/>
    <path class="cls-2" d="M323.41,477.92c0-.33.05-.5.17-.5,1.49,0,2.61-.15,3.36-.46.75-.3,1.26-.86,1.54-1.66.28-.8.42-2,.42-3.61v-15.52c0-1.99-.21-3.43-.62-4.32-.42-.88-1.12-1.33-2.12-1.33s-2.24.39-3.73,1.16h-.08c-.22,0-.39-.14-.5-.42-.11-.28-.08-.47.08-.58l10.79-4.98.33-.08c.11,0,.25.07.42.21.17.14.25.29.25.46,0,.39-.03,1.49-.08,3.32-.06,1.83-.08,3.98-.08,6.47v15.6c0,1.66.14,2.88.42,3.65.28.78.77,1.32,1.49,1.62.72.3,1.83.46,3.32.46.17,0,.25.17.25.5s-.08.5-.25.5c-1.27,0-2.3-.03-3.07-.08l-4.48-.08-4.48.08c-.78.06-1.83.08-3.15.08-.11,0-.17-.17-.17-.5ZM327.85,435.01c-.64-.61-.96-1.46-.96-2.57s.32-1.96.96-2.57c.63-.61,1.54-.91,2.7-.91s1.96.3,2.57.91c.61.61.91,1.47.91,2.57s-.31,1.96-.91,2.57c-.61.61-1.47.91-2.57.91-1.16,0-2.06-.3-2.7-.91Z"/>
    <path class="cls-2" d="M382.17,477.92c0,.33-.08.5-.25.5-1.27,0-2.3-.03-3.07-.08l-4.48-.08-5.98.08c-.89.06-2.07.08-3.57.08-.11,0-.17-.17-.17-.5s.05-.5.17-.5c2.77,0,4.15-.53,4.15-1.58,0-.5-.25-1.11-.75-1.83l-10.21-13.86-4.15,3.24v8.3c0,1.61.14,2.81.42,3.61.28.8.77,1.36,1.49,1.66.72.3,1.83.46,3.32.46.17,0,.25.17.25.5s-.08.5-.25.5c-1.27,0-2.3-.03-3.07-.08l-4.48-.08-4.48.08c-.78.06-1.8.08-3.07.08-.17,0-.25-.17-.25-.5s.08-.5.25-.5c1.49,0,2.6-.15,3.32-.46.72-.3,1.22-.86,1.49-1.66.28-.8.42-2,.42-3.61v-42.91c0-1.99-.19-3.43-.58-4.32-.39-.88-1.08-1.33-2.07-1.33-.83,0-2.1.39-3.82,1.16h-.17c-.17,0-.3-.14-.42-.42-.11-.28-.06-.44.17-.5l10.38-5.06.42-.08c.17,0,.33.07.5.21.17.14.25.29.25.46v43.16l11.12-8.96c1.77-1.38,2.66-2.6,2.66-3.65,0-1.38-1.58-2.08-4.73-2.08-.17,0-.25-.17-.25-.5s.08-.5.25-.5c1.49,0,2.63.03,3.4.08l6.06.08,5.56-.08c.72-.05,1.71-.08,2.99-.08.17,0,.25.17.25.5s-.08.5-.25.5c-2.05,0-4.32.5-6.81,1.49s-4.98,2.49-7.47,4.48l-4.81,3.82,10.54,14.53c2.77,3.82,5.95,5.73,9.54,5.73.17,0,.25.17.25.5Z"/>
    <path class="cls-2" d="M410.89,473.77c.17,0,.32.1.46.29.14.19.15.37.04.54-3.65,3.21-7.69,4.81-12.12,4.81-3.21,0-5.95-.75-8.22-2.24-2.27-1.49-4-3.46-5.19-5.89-1.19-2.43-1.78-5.04-1.78-7.8,0-3.26.77-6.27,2.32-9s3.67-4.9,6.35-6.47c2.68-1.58,5.63-2.37,8.84-2.37s5.48.83,7.14,2.49,2.49,3.98,2.49,6.97c0,.78-.07,1.33-.21,1.66-.14.33-.37.5-.71.5l-20.58.08c-.11,1.22-.17,2.21-.17,2.99,0,4.81,1.13,8.71,3.4,11.7,2.27,2.99,5.45,4.48,9.54,4.48,1.66,0,3.08-.22,4.27-.66,1.19-.44,2.53-1.13,4.03-2.08h.08ZM392.96,449.66c-1.55,1.58-2.57,3.78-3.07,6.6l15.77-.33c0-2.82-.61-4.97-1.83-6.43-1.22-1.46-2.88-2.2-4.98-2.2-2.38,0-4.34.79-5.89,2.37Z"/>
  </g>
  <image width="768" height="1376" transform="translate(103.97) scale(.33)" xlink:href="FireflyNoLable copy.png"/>
</svg>